<?xml version="1.0" standalone="no"?>
<!DOCTYPE svg PUBLIC "-//W3C//DTD SVG 20010904//EN"
 "http://www.w3.org/TR/2001/REC-SVG-20010904/DTD/svg10.dtd">
<svg version="1.0" xmlns="http://www.w3.org/2000/svg"
 width="135.000000pt" height="135.000000pt" viewBox="0 0 135.000000 135.000000"
 preserveAspectRatio="xMidYMid meet">
<metadata>
Created by potrace 1.11, written by Peter Selinger 2001-2013
</metadata>
<g transform="translate(0.000000,135.000000) scale(0.100000,-0.100000)"
fill="#000000" stroke="none">
<path d="M180 1319 c-19 -6 -38 -16 -42 -22 -4 -7 -8 -126 -8 -265 0 -223 2
-253 16 -259 15 -5 15 -7 0 -15 -14 -8 -16 -39 -16 -252 0 -183 3 -246 13
-253 17 -14 425 -116 440 -110 7 2 19 -1 27 -8 12 -9 178 -54 297 -80 10 -2
45 -11 78 -20 84 -23 109 -22 153 7 l38 26 1 255 c2 199 -1 259 -11 273 -12
15 -12 20 0 29 12 9 17 176 14 522 0 51 -11 59 -100 68 -36 3 -72 8 -80 10 -8
3 -35 7 -60 10 -25 3 -79 10 -120 17 -41 6 -93 12 -115 12 -22 1 -44 4 -50 7
-5 4 -39 10 -75 14 -36 4 -67 8 -70 10 -3 2 -30 6 -60 9 -30 3 -66 8 -79 11
-59 11 -159 13 -191 4z"/>
</g>
</svg>
